<svg width="48" height="48" viewBox="0 0 48 48" fill="none" xmlns="http://www.w3.org/2000/svg">
<rect width="48" height="48" rx="24" fill="white"/>
<g clip-path="url(#clip0_965_290)">
<path d="M24 15.8019C26.6703 15.8019 26.9862 15.8122 28.0407 15.86C29.0155 15.9045 29.5452 16.0673 29.8974 16.2041C30.3642 16.3853 30.6974 16.6024 31.0475 16.952C31.3976 17.302 31.6141 17.6353 31.7954 18.102C31.9322 18.4543 32.095 18.984 32.1395 19.9588C32.1878 21.0133 32.1976 21.3297 32.1976 23.9995C32.1976 26.6692 32.1872 26.9856 32.1395 28.0402C32.095 29.0149 31.9322 29.5446 31.7954 29.8969C31.6141 30.3636 31.397 30.6969 31.0475 31.0469C30.6974 31.397 30.3642 31.6136 29.8974 31.7948C29.5452 31.9316 29.0155 32.0944 28.0407 32.1389C26.9862 32.1872 26.6703 32.197 24 32.197C21.3297 32.197 21.0133 32.1867 19.9593 32.1389C18.9845 32.0944 18.4548 31.9316 18.1026 31.7948C17.6358 31.6136 17.3026 31.3965 16.9525 31.0469C16.6024 30.6969 16.3859 30.3636 16.2046 29.8969C16.0678 29.5446 15.905 29.0149 15.8605 28.0402C15.8122 26.9856 15.8024 26.6692 15.8024 23.9995C15.8024 21.3297 15.8128 21.0133 15.8605 19.9588C15.905 18.984 16.0678 18.4543 16.2046 18.102C16.3859 17.6353 16.603 17.302 16.9525 16.952C17.302 16.6019 17.6358 16.3853 18.1026 16.2041C18.4548 16.0673 18.9845 15.9045 19.9593 15.86C21.0138 15.8117 21.3303 15.8019 24 15.8019ZM24 14C21.2841 14 20.9438 14.0114 19.8768 14.0602C18.8125 14.1085 18.0852 14.2779 17.4491 14.5248C16.7913 14.7805 16.2339 15.1224 15.6782 15.6782C15.1224 16.2339 14.7805 16.7919 14.5248 17.4491C14.2779 18.0852 14.1085 18.8119 14.0602 19.8768C14.0114 20.9433 14 21.2841 14 24C14 26.7159 14.0114 27.0562 14.0602 28.1232C14.1085 29.1875 14.2779 29.9148 14.5248 30.5509C14.7805 31.2087 15.1224 31.7661 15.6782 32.3218C16.2339 32.8776 16.7919 33.2195 17.4491 33.4752C18.0852 33.7221 18.8119 33.8915 19.8768 33.9398C20.9433 33.9886 21.2841 34 24 34C26.7159 34 27.0562 33.9886 28.1232 33.9398C29.1875 33.8915 29.9148 33.7221 30.5509 33.4752C31.2087 33.2195 31.7661 32.8776 32.3218 32.3218C32.8776 31.7661 33.2195 31.2081 33.4752 30.5509C33.7221 29.9148 33.8915 29.1881 33.9398 28.1232C33.9886 27.0567 34 26.7159 34 24C34 21.2841 33.9886 20.9438 33.9398 19.8768C33.8915 18.8125 33.7221 18.0852 33.4752 17.4491C33.2195 16.7913 32.8776 16.2339 32.3218 15.6782C31.7661 15.1224 31.2081 14.7805 30.5509 14.5248C29.9148 14.2779 29.1881 14.1085 28.1232 14.0602C27.0567 14.0114 26.7159 14 24 14Z" fill="#191919"/>
<path fill-rule="evenodd" clip-rule="evenodd" d="M14 23C14 18.0294 18.0294 14 23 14H25C29.9706 14 34 18.0294 34 23V25C34 29.9706 29.9706 34 25 34H23C18.0294 34 14 29.9706 14 25V23ZM24.0006 18.8652C21.1648 18.8652 18.8652 21.1643 18.8652 24.0006C18.8652 26.837 21.1643 29.1361 24.0006 29.1361C26.837 29.1361 29.1361 26.837 29.1361 24.0006C29.1361 21.1643 26.837 18.8652 24.0006 18.8652ZM24.0006 27.3336C22.1597 27.3336 20.6671 25.8411 20.6671 24.0001C20.6671 22.1591 22.1597 20.6666 24.0006 20.6666C25.8416 20.6666 27.3342 22.1591 27.3342 24.0001C27.3342 25.8411 25.8416 27.3336 24.0006 27.3336ZM30.5387 18.6629C30.5387 19.3256 30.0014 19.8629 29.3387 19.8629C28.6759 19.8629 28.1387 19.3256 28.1387 18.6629C28.1387 18.0001 28.6759 17.4629 29.3387 17.4629C30.0014 17.4629 30.5387 18.0001 30.5387 18.6629Z" fill="#191919"/>
</g>
<defs>
<clipPath id="clip0_965_290">
<rect width="20" height="20" fill="white" transform="translate(14 14)"/>
</clipPath>
</defs>
</svg>
