<svg width="1543" height="827" viewBox="0 0 1543 827" fill="none" xmlns="http://www.w3.org/2000/svg">
<path d="M895.991 17.5011L69.0878 119.489C69.0376 119.495 69 119.538 69 119.588V798.9C69 798.955 69.0448 799 69.1 799H554L1417.94 706.007C1417.98 706.003 1418.01 705.977 1418.02 705.94L1509.49 443.023C1509.5 443.008 1509.5 442.992 1509.5 442.976L1450.51 46.5809C1450.51 46.5338 1450.47 46.4982 1450.42 46.4957L896.009 17.5005C896.003 17.5002 895.997 17.5004 895.991 17.5011Z" stroke="#343434" stroke-linecap="round"/>
<path d="M723.492 24.5006L33.5886 73.4937C33.5381 73.4973 33.4982 73.5382 33.4958 73.5888L1.0048 766.897C1.00217 766.954 1.04639 767.001 1.10262 767.002L648.5 780.5L1523.39 716.008C1523.45 716.004 1523.49 715.95 1523.48 715.892L1420.01 87.0764C1420.01 87.0314 1419.97 86.9972 1419.92 86.9931L723.508 24.5007C723.503 24.5002 723.497 24.5002 723.492 24.5006Z" stroke="#343434" stroke-linecap="round"/>
<path d="M734 57L191.582 40.0026C191.535 40.0011 191.492 40.0337 191.482 40.0803L15.0306 814.366C15.0155 814.432 15.0696 814.494 15.1373 814.487L695 752L1541.88 667.012C1541.94 667.006 1541.98 666.944 1541.97 666.884L1342.02 1.07832C1342.01 1.03275 1341.97 1.00314 1341.92 1.0075L734 57Z" stroke="#343434" stroke-linecap="round"/>
<path d="M662.491 1.00149L111.571 93.9879C111.529 93.9951 111.496 94.0289 111.489 94.0717L15.0148 736.402C15.0066 736.456 15.044 736.507 15.0984 736.515L595.983 826.497C595.994 826.499 596.006 826.499 596.017 826.497L1436.93 665.514C1436.97 665.506 1437 665.471 1437.01 665.428L1517.99 11.111C1517.99 11.0518 1517.95 10.9994 1517.89 10.9987L662.509 1.0001C662.503 1.00004 662.497 1.0005 662.491 1.00149Z" stroke="#343434" stroke-linecap="round"/>
</svg>
