<svg width="1543" height="827" viewBox="0 0 1543 827" fill="none" xmlns="http://www.w3.org/2000/svg">
<path d="M647.009 17.501L1473.91 119.489C1473.96 119.495 1474 119.538 1474 119.588L1474 798.9C1474 798.955 1473.96 799 1473.9 799L989 799L125.063 706.007C125.025 706.003 124.992 705.977 124.979 705.94L33.5081 443.023C33.5029 443.008 33.5013 442.992 33.5037 442.976L92.4879 46.5809C92.495 46.5339 92.5342 46.4983 92.5817 46.4958L646.991 17.5004C646.997 17.5001 647.003 17.5003 647.009 17.501Z" stroke="#343434" stroke-linecap="round"/>
<path d="M819.508 24.5005L1509.41 73.4935C1509.46 73.4971 1509.5 73.538 1509.5 73.5886L1542 766.897C1542 766.953 1541.95 767.001 1541.9 767.002L894.5 780.5L19.6093 716.008C19.5507 716.004 19.5083 715.95 19.5178 715.892L122.987 87.0765C122.995 87.0315 123.032 86.9972 123.077 86.9931L819.492 24.5007C819.497 24.5002 819.503 24.5001 819.508 24.5005Z" stroke="#343434" stroke-linecap="round"/>
<path d="M809 56.9999L1351.42 40.0024C1351.47 40.0009 1351.51 40.0335 1351.52 40.0802L1527.97 814.365C1527.98 814.432 1527.93 814.493 1527.86 814.487L848 752L1.12084 667.012C1.05822 667.006 1.01696 666.944 1.03503 666.884L200.976 1.07837C200.99 1.0328 201.034 1.00319 201.081 1.00755L809 56.9999Z" stroke="#343434" stroke-linecap="round"/>
<path d="M880.509 1.00142L1431.43 93.9878C1431.47 93.995 1431.5 94.0288 1431.51 94.0715L1527.99 736.401C1527.99 736.456 1527.96 736.507 1527.9 736.515L947.017 826.497C947.006 826.499 946.994 826.499 946.983 826.497L106.072 665.514C106.029 665.506 105.996 665.471 105.991 665.428L25.0138 11.111C25.0065 11.0519 25.0522 10.9995 25.1118 10.9988L880.491 1.00003C880.497 0.999965 880.503 1.00043 880.509 1.00142Z" stroke="#343434" stroke-linecap="round"/>
</svg>
