<svg width="1607" height="851" viewBox="0 0 1607 851" fill="none" xmlns="http://www.w3.org/2000/svg">
<path d="M683.35 17.0011L1372.93 103.991C1372.97 103.996 1373.01 104.028 1373.02 104.069L1528.97 814.878C1528.99 814.941 1528.94 815 1528.88 815L1033.06 815L149.635 720.044C149.593 720.04 149.558 720.009 149.549 719.967L51.0057 294.524C51.0021 294.508 51.0023 294.491 51.0065 294.476L116.313 46.6804C116.324 46.6396 116.359 46.61 116.401 46.6063L247 35L683.333 17.0004C683.339 17.0002 683.344 17.0005 683.35 17.0011Z" stroke="#343434" stroke-linecap="round"/>
<path d="M874.5 40.4998L1522.41 66.4963C1522.46 66.4984 1522.5 66.5402 1522.5 66.5923L1550.5 783.398C1550.5 783.454 1550.45 783.501 1550.4 783.502L949.5 796.5L74.6093 732.008C74.5507 732.004 74.5083 731.95 74.5179 731.892L177.987 103.076C177.995 103.031 178.032 102.997 178.077 102.993L874.5 40.4998Z" stroke="#343434" stroke-linecap="round"/>
<path d="M838.103 58.0671L1434.42 46.0017C1434.46 46.0007 1434.51 46.0351 1434.52 46.083L1582.98 829.87C1582.99 829.935 1582.93 829.994 1582.87 829.988L878.508 766.309L1.12164 679.702C1.05877 679.695 1.01739 679.633 1.03582 679.573L208.18 1.07797C208.194 1.03268 208.237 1.0033 208.285 1.00757L838.103 58.0671Z" stroke="#343434" stroke-linecap="round"/>
<path d="M932.915 78L1494.43 146.991C1494.47 146.996 1494.5 147.03 1494.51 147.074L1606.48 850.361C1606.49 850.429 1606.43 850.488 1606.36 850.476L983.01 740.502C983.003 740.501 982.997 740.5 982.99 740.5L114.596 758.998C114.542 758.999 114.497 758.958 114.494 758.904L74.0062 87.3721C74.0028 87.3151 74.0477 87.2667 74.105 87.2661L932.915 78Z" stroke="#343434" stroke-linecap="round"/>
</svg>
